<svg width="510" height="143" viewBox="0 0 510 143" fill="none" xmlns="http://www.w3.org/2000/svg">
<path d="M43.3889 23.88L28.4489 66H15.6089L0.668906 23.88H11.5889L22.0289 55.68L32.5289 23.88H43.3889ZM79.237 48.72C79.237 49.68 79.177 50.68 79.057 51.72H55.837C55.997 53.8 56.657 55.4 57.817 56.52C59.017 57.6 60.477 58.14 62.197 58.14C64.757 58.14 66.537 57.06 67.537 54.9H78.457C77.897 57.1 76.877 59.08 75.397 60.84C73.957 62.6 72.137 63.98 69.937 64.98C67.737 65.98 65.277 66.48 62.557 66.48C59.277 66.48 56.357 65.78 53.797 64.38C51.237 62.98 49.237 60.98 47.797 58.38C46.357 55.78 45.637 52.74 45.637 49.26C45.637 45.78 46.337 42.74 47.737 40.14C49.177 37.54 51.177 35.54 53.737 34.14C56.297 32.74 59.237 32.04 62.557 32.04C65.797 32.04 68.677 32.72 71.197 34.08C73.717 35.44 75.677 37.38 77.077 39.9C78.517 42.42 79.237 45.36 79.237 48.72ZM68.737 46.02C68.737 44.26 68.137 42.86 66.937 41.82C65.737 40.78 64.237 40.26 62.437 40.26C60.717 40.26 59.257 40.76 58.057 41.76C56.897 42.76 56.177 44.18 55.897 46.02H68.737ZM103.31 57.3V66H98.0897C94.3697 66 91.4697 65.1 89.3897 63.3C87.3097 61.46 86.2697 58.48 86.2697 54.36V41.04H82.1897V32.52H86.2697V24.36H96.5297V32.52H103.25V41.04H96.5297V54.48C96.5297 55.48 96.7697 56.2 97.2497 56.64C97.7297 57.08 98.5297 57.3 99.6497 57.3H103.31ZM140.585 48.72C140.585 49.68 140.525 50.68 140.405 51.72H117.185C117.345 53.8 118.005 55.4 119.165 56.52C120.365 57.6 121.825 58.14 123.545 58.14C126.105 58.14 127.885 57.06 128.885 54.9H139.805C139.245 57.1 138.225 59.08 136.745 60.84C135.305 62.6 133.485 63.98 131.285 64.98C129.085 65.98 126.625 66.48 123.905 66.48C120.625 66.48 117.705 65.78 115.145 64.38C112.585 62.98 110.585 60.98 109.145 58.38C107.705 55.78 106.985 52.74 106.985 49.26C106.985 45.78 107.685 42.74 109.085 40.14C110.525 37.54 112.525 35.54 115.085 34.14C117.645 32.74 120.585 32.04 123.905 32.04C127.145 32.04 130.025 32.72 132.545 34.08C135.065 35.44 137.025 37.38 138.425 39.9C139.865 42.42 140.585 45.36 140.585 48.72ZM130.085 46.02C130.085 44.26 129.485 42.86 128.285 41.82C127.085 40.78 125.585 40.26 123.785 40.26C122.065 40.26 120.605 40.76 119.405 41.76C118.245 42.76 117.525 44.18 117.245 46.02H130.085ZM156.257 38.1C157.457 36.26 158.957 34.82 160.757 33.78C162.557 32.7 164.557 32.16 166.757 32.16V43.02H163.937C161.377 43.02 159.457 43.58 158.177 44.7C156.897 45.78 156.257 47.7 156.257 50.46V66H145.997V32.52H156.257V38.1ZM176.821 29.04C175.021 29.04 173.541 28.52 172.381 27.48C171.261 26.4 170.701 25.08 170.701 23.52C170.701 21.92 171.261 20.6 172.381 19.56C173.541 18.48 175.021 17.94 176.821 17.94C178.581 17.94 180.021 18.48 181.141 19.56C182.301 20.6 182.881 21.92 182.881 23.52C182.881 25.08 182.301 26.4 181.141 27.48C180.021 28.52 178.581 29.04 176.821 29.04ZM181.921 32.52V66H171.661V32.52H181.921ZM209.757 32.16C213.677 32.16 216.797 33.44 219.117 36C221.477 38.52 222.657 42 222.657 46.44V66H212.457V47.82C212.457 45.58 211.877 43.84 210.717 42.6C209.557 41.36 207.997 40.74 206.037 40.74C204.077 40.74 202.517 41.36 201.357 42.6C200.197 43.84 199.617 45.58 199.617 47.82V66H189.357V32.52H199.617V36.96C200.657 35.48 202.057 34.32 203.817 33.48C205.577 32.6 207.557 32.16 209.757 32.16ZM227.746 49.2C227.746 45.76 228.386 42.74 229.666 40.14C230.986 37.54 232.766 35.54 235.006 34.14C237.246 32.74 239.746 32.04 242.506 32.04C244.866 32.04 246.926 32.52 248.686 33.48C250.486 34.44 251.866 35.7 252.826 37.26V32.52H263.086V66H252.826V61.26C251.826 62.82 250.426 64.08 248.626 65.04C246.866 66 244.806 66.48 242.446 66.48C239.726 66.48 237.246 65.78 235.006 64.38C232.766 62.94 230.986 60.92 229.666 58.32C228.386 55.68 227.746 52.64 227.746 49.2ZM252.826 49.26C252.826 46.7 252.106 44.68 250.666 43.2C249.266 41.72 247.546 40.98 245.506 40.98C243.466 40.98 241.726 41.72 240.286 43.2C238.886 44.64 238.186 46.64 238.186 49.2C238.186 51.76 238.886 53.8 240.286 55.32C241.726 56.8 243.466 57.54 245.506 57.54C247.546 57.54 249.266 56.8 250.666 55.32C252.106 53.84 252.826 51.82 252.826 49.26ZM280.769 38.1C281.969 36.26 283.469 34.82 285.269 33.78C287.069 32.7 289.069 32.16 291.269 32.16V43.02H288.449C285.889 43.02 283.969 43.58 282.689 44.7C281.409 45.78 280.769 47.7 280.769 50.46V66H270.509V32.52H280.769V38.1ZM301.333 29.04C299.533 29.04 298.053 28.52 296.893 27.48C295.773 26.4 295.213 25.08 295.213 23.52C295.213 21.92 295.773 20.6 296.893 19.56C298.053 18.48 299.533 17.94 301.333 17.94C303.093 17.94 304.533 18.48 305.653 19.56C306.813 20.6 307.393 21.92 307.393 23.52C307.393 25.08 306.813 26.4 305.653 27.48C304.533 28.52 303.093 29.04 301.333 29.04ZM306.433 32.52V66H296.173V32.52H306.433ZM311.828 49.2C311.828 45.76 312.468 42.74 313.748 40.14C315.068 37.54 316.848 35.54 319.088 34.14C321.328 32.74 323.828 32.04 326.588 32.04C328.948 32.04 331.008 32.52 332.768 33.48C334.568 34.44 335.948 35.7 336.908 37.26V32.52H347.168V66H336.908V61.26C335.908 62.82 334.508 64.08 332.708 65.04C330.948 66 328.888 66.48 326.528 66.48C323.808 66.48 321.328 65.78 319.088 64.38C316.848 62.94 315.068 60.92 313.748 58.32C312.468 55.68 311.828 52.64 311.828 49.2ZM336.908 49.26C336.908 46.7 336.188 44.68 334.748 43.2C333.348 41.72 331.628 40.98 329.588 40.98C327.548 40.98 325.808 41.72 324.368 43.2C322.968 44.64 322.268 46.64 322.268 49.2C322.268 51.76 322.968 53.8 324.368 55.32C325.808 56.8 327.548 57.54 329.588 57.54C331.628 57.54 333.348 56.8 334.748 55.32C336.188 53.84 336.908 51.82 336.908 49.26Z" fill="#1070FD"/>
<path d="M201.529 97.4C203.969 97.92 205.929 99.14 207.409 101.06C208.889 102.94 209.629 105.1 209.629 107.54C209.629 111.06 208.389 113.86 205.909 115.94C203.469 117.98 200.049 119 195.649 119H176.029V76.88H194.989C199.269 76.88 202.609 77.86 205.009 79.82C207.449 81.78 208.669 84.44 208.669 87.8C208.669 90.28 208.009 92.34 206.689 93.98C205.409 95.62 203.689 96.76 201.529 97.4ZM186.289 93.92H193.009C194.689 93.92 195.969 93.56 196.849 92.84C197.769 92.08 198.229 90.98 198.229 89.54C198.229 88.1 197.769 87 196.849 86.24C195.969 85.48 194.689 85.1 193.009 85.1H186.289V93.92ZM193.849 110.72C195.569 110.72 196.889 110.34 197.809 109.58C198.769 108.78 199.249 107.64 199.249 106.16C199.249 104.68 198.749 103.52 197.749 102.68C196.789 101.84 195.449 101.42 193.729 101.42H186.289V110.72H193.849ZM248.639 85.52V119H238.379V114.44C237.339 115.92 235.919 117.12 234.119 118.04C232.359 118.92 230.399 119.36 228.239 119.36C225.679 119.36 223.419 118.8 221.459 117.68C219.499 116.52 217.979 114.86 216.899 112.7C215.819 110.54 215.279 108 215.279 105.08V85.52H225.479V103.7C225.479 105.94 226.059 107.68 227.219 108.92C228.379 110.16 229.939 110.78 231.899 110.78C233.899 110.78 235.479 110.16 236.639 108.92C237.799 107.68 238.379 105.94 238.379 103.7V85.52H248.639ZM253.969 102.2C253.969 98.76 254.609 95.74 255.889 93.14C257.209 90.54 258.989 88.54 261.229 87.14C263.469 85.74 265.969 85.04 268.729 85.04C270.929 85.04 272.929 85.5 274.729 86.42C276.569 87.34 278.009 88.58 279.049 90.14V74.6H289.309V119H279.049V114.2C278.089 115.8 276.709 117.08 274.909 118.04C273.149 119 271.089 119.48 268.729 119.48C265.969 119.48 263.469 118.78 261.229 117.38C258.989 115.94 257.209 113.92 255.889 111.32C254.609 108.68 253.969 105.64 253.969 102.2ZM279.049 102.26C279.049 99.7 278.329 97.68 276.889 96.2C275.489 94.72 273.769 93.98 271.729 93.98C269.689 93.98 267.949 94.72 266.509 96.2C265.109 97.64 264.409 99.64 264.409 102.2C264.409 104.76 265.109 106.8 266.509 108.32C267.949 109.8 269.689 110.54 271.729 110.54C273.769 110.54 275.489 109.8 276.889 108.32C278.329 106.84 279.049 104.82 279.049 102.26ZM317.312 85.16C321.152 85.16 324.232 86.44 326.552 89C328.872 91.52 330.032 95 330.032 99.44V119H319.832V100.82C319.832 98.58 319.252 96.84 318.092 95.6C316.932 94.36 315.372 93.74 313.412 93.74C311.452 93.74 309.892 94.36 308.732 95.6C307.572 96.84 306.992 98.58 306.992 100.82V119H296.732V74.6H306.992V90.02C308.032 88.54 309.452 87.36 311.252 86.48C313.052 85.6 315.072 85.16 317.312 85.16ZM335.121 102.2C335.121 98.76 335.761 95.74 337.041 93.14C338.361 90.54 340.141 88.54 342.381 87.14C344.621 85.74 347.121 85.04 349.881 85.04C352.241 85.04 354.301 85.52 356.061 86.48C357.861 87.44 359.241 88.7 360.201 90.26V85.52H370.461V119H360.201V114.26C359.201 115.82 357.801 117.08 356.001 118.04C354.241 119 352.181 119.48 349.821 119.48C347.101 119.48 344.621 118.78 342.381 117.38C340.141 115.94 338.361 113.92 337.041 111.32C335.761 108.68 335.121 105.64 335.121 102.2ZM360.201 102.26C360.201 99.7 359.481 97.68 358.041 96.2C356.641 94.72 354.921 93.98 352.881 93.98C350.841 93.98 349.101 94.72 347.661 96.2C346.261 97.64 345.561 99.64 345.561 102.2C345.561 104.76 346.261 106.8 347.661 108.32C349.101 109.8 350.841 110.54 352.881 110.54C354.921 110.54 356.641 109.8 358.041 108.32C359.481 106.84 360.201 104.82 360.201 102.26ZM388.144 90.26C389.144 88.7 390.524 87.44 392.284 86.48C394.044 85.52 396.104 85.04 398.464 85.04C401.224 85.04 403.724 85.74 405.964 87.14C408.204 88.54 409.964 90.54 411.244 93.14C412.564 95.74 413.224 98.76 413.224 102.2C413.224 105.64 412.564 108.68 411.244 111.32C409.964 113.92 408.204 115.94 405.964 117.38C403.724 118.78 401.224 119.48 398.464 119.48C396.144 119.48 394.084 119 392.284 118.04C390.524 117.08 389.144 115.84 388.144 114.32V134.96H377.884V85.52H388.144V90.26ZM402.784 102.2C402.784 99.64 402.064 97.64 400.624 96.2C399.224 94.72 397.484 93.98 395.404 93.98C393.364 93.98 391.624 94.72 390.184 96.2C388.784 97.68 388.084 99.7 388.084 102.26C388.084 104.82 388.784 106.84 390.184 108.32C391.624 109.8 393.364 110.54 395.404 110.54C397.444 110.54 399.184 109.8 400.624 108.32C402.064 106.8 402.784 104.76 402.784 102.2ZM450.167 101.72C450.167 102.68 450.107 103.68 449.987 104.72H426.767C426.927 106.8 427.587 108.4 428.747 109.52C429.947 110.6 431.407 111.14 433.127 111.14C435.687 111.14 437.467 110.06 438.467 107.9H449.387C448.827 110.1 447.807 112.08 446.327 113.84C444.887 115.6 443.067 116.98 440.867 117.98C438.667 118.98 436.207 119.48 433.487 119.48C430.207 119.48 427.287 118.78 424.727 117.38C422.167 115.98 420.167 113.98 418.727 111.38C417.287 108.78 416.567 105.74 416.567 102.26C416.567 98.78 417.267 95.74 418.667 93.14C420.107 90.54 422.107 88.54 424.667 87.14C427.227 85.74 430.167 85.04 433.487 85.04C436.727 85.04 439.607 85.72 442.127 87.08C444.647 88.44 446.607 90.38 448.007 92.9C449.447 95.42 450.167 98.36 450.167 101.72ZM439.667 99.02C439.667 97.26 439.067 95.86 437.867 94.82C436.667 93.78 435.167 93.26 433.367 93.26C431.647 93.26 430.187 93.76 428.987 94.76C427.827 95.76 427.107 97.18 426.827 99.02H439.667ZM474.239 110.3V119H469.019C465.299 119 462.399 118.1 460.319 116.3C458.239 114.46 457.199 111.48 457.199 107.36V94.04H453.119V85.52H457.199V77.36H467.459V85.52H474.179V94.04H467.459V107.48C467.459 108.48 467.699 109.2 468.179 109.64C468.659 110.08 469.459 110.3 470.579 110.3H474.239ZM493.574 119.48C490.654 119.48 488.054 118.98 485.774 117.98C483.494 116.98 481.694 115.62 480.374 113.9C479.054 112.14 478.314 110.18 478.154 108.02H488.294C488.414 109.18 488.954 110.12 489.914 110.84C490.874 111.56 492.054 111.92 493.454 111.92C494.734 111.92 495.714 111.68 496.394 111.2C497.114 110.68 497.474 110.02 497.474 109.22C497.474 108.26 496.974 107.56 495.974 107.12C494.974 106.64 493.354 106.12 491.114 105.56C488.714 105 486.714 104.42 485.114 103.82C483.514 103.18 482.134 102.2 480.974 100.88C479.814 99.52 479.234 97.7 479.234 95.42C479.234 93.5 479.754 91.76 480.794 90.2C481.874 88.6 483.434 87.34 485.474 86.42C487.554 85.5 490.014 85.04 492.854 85.04C497.054 85.04 500.354 86.08 502.754 88.16C505.194 90.24 506.594 93 506.954 96.44H497.474C497.314 95.28 496.794 94.36 495.914 93.68C495.074 93 493.954 92.66 492.554 92.66C491.354 92.66 490.434 92.9 489.794 93.38C489.154 93.82 488.834 94.44 488.834 95.24C488.834 96.2 489.334 96.92 490.334 97.4C491.374 97.88 492.974 98.36 495.134 98.84C497.614 99.48 499.634 100.12 501.194 100.76C502.754 101.36 504.114 102.36 505.274 103.76C506.474 105.12 507.094 106.96 507.134 109.28C507.134 111.24 506.574 113 505.454 114.56C504.374 116.08 502.794 117.28 500.714 118.16C498.674 119.04 496.294 119.48 493.574 119.48Z" fill="#1070FD"/>
<path d="M414 37.4286V44.5714H392.571V66H385.429V44.5714H364V37.4286H385.429V16H392.571V37.4286H414Z" fill="#D93ED9"/>
</svg>
